<?xml version="1.0" standalone="no"?>
<!DOCTYPE svg PUBLIC "-//W3C//DTD SVG 20010904//EN"
 "http://www.w3.org/TR/2001/REC-SVG-20010904/DTD/svg10.dtd">
<svg version="1.0" xmlns="http://www.w3.org/2000/svg"
 viewBox="0 0 2600.000000 2600.000000"
 preserveAspectRatio="xMidYMid meet">
<metadata>
Created by potrace 1.13, written by Peter Selinger 2001-2015
</metadata>
<g transform="translate(0.000000,2600.000000) scale(0.100000,-0.100000)"
fill="#000000" stroke="none">
<path d="M11040 20075 l-1395 -855 -1266 0 -1266 0 -33 -22 c-18 -13 -43 -36
-54 -51 -21 -28 -21 -35 -24 -786 l-2 -757 -1510 -923 -1510 -923 0 -4564 0
-4564 8500 0 8500 0 0 4544 c0 4207 -1 4545 -16 4557 -10 8 -699 431 -1533
941 l-1516 926 -5 754 -5 754 -27 41 c-52 79 56 73 -1357 73 l-1261 0 -1393
852 c-765 468 -1401 853 -1412 854 -12 2 -554 -324 -1415 -851z m6530 -3185
c0 -1094 3 -1990 8 -1990 4 0 622 194 1374 431 1474 465 1397 445 1469 396 93
-63 98 -202 8 -269 -38 -29 -7993 -2538 -8045 -2538 -28 0 -1322 404 -3861
1205 -2100 664 -3897 1231 -3993 1262 -157 49 -179 59 -212 93 -65 69 -61 168
11 233 45 40 94 52 153 37 42 -11 2811 -884 2842 -896 15 -6 16 169 16 2010
l0 2016 5115 0 5115 0 0 -1990z"/>
<path d="M8633 17869 c-79 -25 -161 -97 -200 -177 l-28 -57 0 -1255 0 -1255
33 -67 c39 -80 101 -138 181 -170 l56 -23 1135 0 1135 0 57 23 c75 31 150 101
185 177 l28 60 3 1230 c2 1225 2 1230 -19 1299 -18 60 -30 78 -83 132 -53 52
-73 65 -130 83 -68 21 -78 21 -1180 20 -1075 0 -1113 -1 -1173 -20z"/>
<path d="M11775 17535 c-17 -16 -25 -35 -25 -60 0 -25 8 -44 25 -60 l24 -25
2435 0 2435 0 27 24 c21 18 28 32 28 61 0 29 -7 43 -28 61 l-27 24 -2435 0
-2435 0 -24 -25z"/>
<path d="M11813 16833 c-31 -6 -63 -50 -63 -85 0 -19 10 -40 29 -59 l29 -29
2422 0 c2660 0 2466 -5 2489 60 12 36 3 66 -29 95 -22 20 -37 20 -2439 21
-1329 1 -2426 -1 -2438 -3z"/>
<path d="M11813 16023 c-31 -6 -63 -50 -63 -85 0 -19 10 -40 29 -59 l29 -29
2421 0 c1578 0 2429 3 2446 10 33 12 59 69 46 102 -5 13 -19 32 -31 43 -22 20
-37 20 -2439 21 -1329 1 -2426 -1 -2438 -3z"/>
</g>
</svg>
