<?xml version="1.0" standalone="no"?>
<!DOCTYPE svg PUBLIC "-//W3C//DTD SVG 20010904//EN"
 "http://www.w3.org/TR/2001/REC-SVG-20010904/DTD/svg10.dtd">
<svg version="1.0" xmlns="http://www.w3.org/2000/svg"
 viewBox="0 0 2600.000000 2600.000000"
 preserveAspectRatio="xMidYMid meet">
<metadata>
Created by potrace 1.13, written by Peter Selinger 2001-2015
</metadata>
<g transform="translate(0.000000,2600.000000) scale(0.100000,-0.100000)"
fill="#000000" stroke="none">
<path d="M12045 21979 c-174 -22 -364 -89 -502 -175 -254 -158 -439 -392 -533
-672 -55 -166 -62 -230 -69 -687 l-6 -419 -115 -33 c-271 -78 -605 -198 -864
-312 -77 -34 -140 -60 -141 -59 -31 47 -540 640 -577 672 -329 291 -817 391
-1244 255 -118 -37 -256 -106 -339 -169 -78 -59 -867 -720 -923 -774 -106
-100 -226 -279 -282 -420 -60 -150 -82 -256 -87 -427 -6 -180 9 -293 58 -442
67 -200 120 -279 429 -647 135 -160 246 -297 248 -304 1 -6 -30 -58 -69 -115
-156 -226 -351 -556 -474 -801 -31 -63 -58 -116 -59 -117 -2 -2 -166 27 -367
63 -523 95 -686 98 -943 17 -385 -121 -705 -452 -815 -843 -26 -93 -206 -1109
-221 -1251 -23 -212 26 -473 126 -671 122 -241 340 -452 586 -568 125 -59 226
-83 627 -154 199 -36 364 -66 366 -68 2 -2 8 -61 15 -133 25 -288 83 -644 149
-930 17 -71 27 -133 23 -137 -4 -3 -149 -88 -322 -189 -371 -214 -417 -245
-531 -359 -145 -147 -255 -333 -312 -530 -41 -140 -50 -224 -44 -397 6 -180
29 -288 95 -440 42 -98 578 -1031 650 -1132 149 -211 383 -380 636 -460 253
-81 513 -80 761 3 130 44 176 67 525 269 l284 165 146 -140 c220 -213 497
-447 705 -599 47 -34 85 -65 85 -70 0 -5 -54 -157 -120 -338 -135 -372 -154
-437 -171 -583 -25 -217 22 -481 122 -680 118 -236 332 -450 564 -566 72 -35
1074 -401 1197 -436 232 -67 493 -59 727 20 310 106 583 348 723 640 19 39 86
214 149 388 l114 318 80 -6 c44 -3 145 -11 225 -17 142 -11 743 -6 891 7 l65
6 113 -313 c62 -173 132 -354 156 -404 115 -241 325 -451 570 -573 184 -91
341 -127 555 -126 155 1 233 12 355 50 148 47 1110 402 1170 432 288 144 517
407 619 712 54 163 69 267 63 450 -6 194 -14 223 -164 639 l-117 324 24 18
c357 258 554 419 808 662 122 117 135 126 155 115 12 -6 135 -76 272 -156 138
-80 288 -164 335 -187 342 -172 758 -171 1105 2 190 95 365 249 479 422 54 82
553 945 600 1038 139 277 165 622 70 925 -62 198 -158 356 -308 503 -121 121
-169 153 -527 359 l-276 159 28 111 c69 267 137 655 167 954 l17 167 345 61
c190 34 380 71 422 82 204 57 379 160 539 321 198 197 310 416 355 689 30 182
19 286 -96 932 -66 370 -112 606 -131 664 -124 377 -413 670 -788 795 -245 82
-422 82 -891 -3 -173 -31 -327 -59 -342 -62 -26 -5 -30 0 -97 133 -141 282
-309 570 -468 801 -74 107 -83 125 -71 140 7 9 105 127 218 262 282 335 309
372 374 507 190 391 160 853 -79 1224 -99 153 -139 191 -825 763 -352 294
-441 349 -672 411 -384 103 -823 13 -1130 -233 -88 -70 -116 -101 -367 -402
-122 -146 -227 -269 -234 -273 -8 -6 -64 14 -151 53 -257 113 -565 224 -908
325 l-88 26 0 413 c0 448 -6 515 -56 671 -62 191 -154 344 -296 491 -180 186
-392 302 -658 361 -64 14 -165 16 -710 19 -349 1 -666 -2 -705 -7z m1357 -872
c88 -43 152 -107 195 -195 l28 -57 3 -570 2 -570 -33 -168 c-19 -92 -32 -169
-28 -171 3 -2 116 -27 251 -56 701 -148 1094 -287 1718 -606 155 -79 284 -144
286 -144 2 0 206 242 454 538 484 576 501 594 620 628 88 26 211 16 287 -23
38 -20 217 -163 485 -387 457 -382 493 -419 526 -533 11 -39 15 -81 12 -138
-7 -140 -12 -147 -507 -735 -243 -289 -445 -530 -447 -537 -3 -7 37 -66 90
-132 477 -599 733 -1039 1031 -1771 25 -63 50 -118 54 -122 4 -5 301 44 661
108 627 110 743 126 816 108 57 -14 147 -66 192 -112 85 -88 92 -111 197 -707
109 -613 113 -660 62 -765 -51 -108 -135 -183 -243 -218 -32 -11 -349 -70
-704 -132 -355 -62 -648 -115 -652 -119 -4 -4 -12 -126 -18 -271 -27 -692
-112 -1180 -311 -1800 -39 -124 -72 -234 -73 -244 -1 -15 118 -88 574 -351
619 -357 650 -379 702 -485 51 -106 57 -232 15 -332 -37 -88 -565 -987 -606
-1031 -112 -120 -320 -159 -465 -85 -33 17 -329 186 -1122 644 l-41 24 -180
-197 c-467 -513 -858 -837 -1443 -1198 -96 -59 -180 -113 -187 -119 -9 -8 40
-154 213 -631 124 -341 230 -646 235 -678 24 -147 -51 -314 -178 -395 -27 -17
-277 -115 -573 -223 l-525 -193 -95 0 c-110 0 -173 20 -255 82 -94 71 -106 98
-351 772 -124 344 -229 628 -233 631 -3 3 -82 -5 -176 -17 -793 -109 -1154
-108 -1925 5 -146 21 -266 38 -266 37 -1 0 -104 -282 -229 -626 -124 -344
-238 -645 -252 -669 -38 -66 -106 -126 -181 -163 -63 -31 -74 -33 -172 -33
l-105 1 -500 183 c-524 192 -575 213 -632 260 -111 91 -169 270 -132 406 9 32
311 868 438 1212 l30 82 -189 121 c-594 380 -985 718 -1461 1260 -72 82 -133
150 -135 150 -2 0 -273 -155 -602 -345 -657 -379 -666 -383 -797 -371 -91 8
-199 58 -257 119 -46 48 -597 993 -616 1057 -44 149 -4 305 106 413 34 33 214
142 647 392 330 191 601 348 603 349 1 2 -14 54 -33 117 -235 748 -307 1175
-331 1972 -3 119 -9 217 -12 217 -34 0 -1379 245 -1412 257 -90 33 -168 98
-215 178 -29 48 -55 144 -55 200 0 58 187 1111 207 1165 50 136 173 237 320
261 66 11 86 9 616 -85 301 -53 621 -112 712 -130 l164 -33 42 101 c153 367
232 538 339 736 191 354 375 628 692 1029 54 68 98 127 98 132 0 4 -205 254
-455 556 -259 312 -466 570 -481 599 -75 153 -41 344 84 467 104 102 850 719
897 742 75 37 164 50 243 36 71 -13 160 -55 208 -98 18 -15 235 -272 483 -571
l451 -542 188 96 c103 53 205 107 227 119 74 42 368 171 540 238 310 119 613
206 1020 292 94 20 178 38 188 41 16 5 17 47 17 703 0 427 4 719 10 751 30
157 156 293 306 329 22 5 295 9 635 8 l595 -2 76 -38z"/>
<path d="M12430 17649 c-902 -57 -1762 -412 -2442 -1008 -1093 -957 -1595
-2389 -1342 -3821 95 -538 311 -1075 616 -1533 162 -244 286 -396 502 -615
390 -396 815 -688 1318 -903 1090 -466 2340 -433 3407 91 275 135 516 287 746
471 896 714 1442 1728 1545 2869 15 157 15 548 0 700 -31 338 -92 630 -199
950 -255 763 -717 1419 -1354 1924 -789 625 -1792 939 -2797 875z m645 -853
c537 -71 983 -235 1415 -522 771 -511 1292 -1326 1429 -2234 43 -288 47 -642
10 -920 -158 -1179 -940 -2175 -2057 -2619 -615 -245 -1351 -287 -2007 -116
-571 149 -1068 436 -1490 859 -372 373 -624 783 -799 1298 -55 161 -106 394
-138 628 -17 128 -17 633 0 760 58 420 157 744 337 1099 350 691 924 1226
1650 1536 280 120 620 207 920 235 61 5 126 12 145 14 72 9 479 -4 585 -18z"/>
<path d="M12450 15840 c-1070 -115 -1922 -959 -2050 -2029 -16 -135 -13 -415
5 -556 33 -253 104 -485 220 -720 226 -459 586 -820 1040 -1045 221 -109 423
-175 665 -215 130 -22 439 -31 581 -16 1062 110 1893 906 2056 1971 24 159 24
482 0 640 -77 496 -286 922 -627 1274 -359 370 -803 601 -1310 681 -124 19
-456 28 -580 15z m560 -863 c459 -108 831 -417 1020 -848 43 -96 70 -183 97
-309 27 -128 25 -430 -5 -562 -65 -298 -191 -528 -401 -739 -211 -210 -451
-342 -742 -405 -68 -16 -125 -19 -304 -18 -213 1 -224 2 -336 31 -282 75 -499
199 -694 398 -481 489 -559 1244 -189 1812 153 236 333 397 586 523 133 67
245 104 393 131 148 27 429 20 575 -14z"/>
</g>
</svg>
