<?xml version="1.0" standalone="no"?>
<!DOCTYPE svg PUBLIC "-//W3C//DTD SVG 20010904//EN"
 "http://www.w3.org/TR/2001/REC-SVG-20010904/DTD/svg10.dtd">
<svg version="1.0" xmlns="http://www.w3.org/2000/svg"
 viewBox="0 0 2600.000000 2600.000000"
 preserveAspectRatio="xMidYMid meet">
<metadata>
Created by potrace 1.13, written by Peter Selinger 2001-2015
</metadata>
<g transform="translate(0.000000,2600.000000) scale(0.100000,-0.100000)"
fill="#000000" stroke="none">
<path d="M15096 22640 l-2599 -1340 -328 0 -329 0 0 -195 0 -195 5828 2 5827
3 0 190 0 190 -390 5 -390 5 -2495 1332 c-1372 732 -2502 1334 -2510 1337 -9
4 -1118 -563 -2614 -1334z m4851 -182 l2246 -1153 -2261 -3 c-1244 -1 -3280
-1 -4524 0 l-2263 3 2270 1151 c1249 634 2274 1152 2278 1153 4 0 1019 -518
2254 -1151z"/>
<path d="M15926 22327 l-1760 -892 1752 -3 c964 -1 2539 -1 3500 0 l1748 3
-1734 890 c-953 490 -1737 891 -1740 892 -4 1 -799 -399 -1766 -890z"/>
<path d="M11840 18740 l0 -1930 -4480 0 -4480 0 0 -7015 0 -7015 10310 0
10310 0 -2 8943 -3 8942 -5827 3 -5828 2 0 -1930z m6008 -6 c199 -41 348 -118
500 -259 l72 -67 0 -199 0 -199 -770 0 -770 0 0 194 0 195 67 67 c133 133 308
227 503 268 91 20 302 20 398 0z m-2235 -501 c105 -37 209 -105 282 -185 l55
-61 0 -899 0 -898 -540 0 -540 0 0 899 0 900 56 60 c182 196 445 267 687 184z
m4370 21 c120 -26 229 -86 324 -179 l83 -80 0 -903 0 -902 -540 0 -540 0 0
896 0 896 47 55 c153 179 404 266 626 217z m-2403 -1229 l0 -835 -350 0 -350
0 0 835 0 835 350 0 350 0 0 -835z m840 0 l0 -835 -345 0 -345 0 0 835 0 835
345 0 345 0 0 -835z m-3022 -2125 c241 -26 445 -119 621 -285 l71 -67 0 -204
0 -204 -790 0 -790 0 0 204 0 203 74 70 c197 187 390 268 701 291 11 1 62 -3
113 -8z m2381 0 c236 -25 440 -118 619 -284 l72 -68 0 -204 0 -204 -790 0
-790 0 0 203 0 204 73 70 c164 158 370 256 592 281 113 13 112 13 224 2z
m2380 0 c237 -25 450 -123 621 -288 l70 -67 0 -203 0 -202 -790 0 -790 0 0
203 0 203 60 61 c155 157 388 269 607 292 113 12 111 12 222 1z m-11368 -10
c124 -13 245 -48 354 -102 106 -54 154 -87 242 -171 l73 -70 0 -198 0 -199
-765 0 -765 0 0 200 0 200 59 59 c161 161 388 264 626 284 22 2 47 4 56 5 9 1
63 -3 120 -8z m-2187 -500 c116 -29 208 -83 304 -175 l82 -80 0 -903 0 -902
-540 0 -540 0 0 902 0 901 84 82 c92 90 200 152 311 179 88 21 208 20 299 -4z
m4467 -4 c121 -38 251 -123 322 -209 l37 -45 0 -901 0 -901 -540 0 -540 0 0
896 0 896 41 49 c54 65 145 134 228 174 58 28 84 37 176 59 38 9 230 -3 276
-18z m-2451 -1221 l0 -835 -345 0 -345 0 0 835 0 835 345 0 345 0 0 -835z
m840 0 l0 -835 -345 0 -345 0 0 835 0 835 345 0 345 0 0 -835z m5760 -45 l0
-860 -355 0 -355 0 0 860 0 860 355 0 355 0 0 -860z m870 0 l0 -860 -355 0
-355 0 0 860 0 860 355 0 355 0 0 -860z m1510 0 l0 -860 -355 0 -355 0 0 860
0 860 355 0 355 0 0 -860z m870 0 l0 -860 -360 0 -360 0 0 860 0 860 360 0
360 0 0 -860z m1510 0 l0 -860 -355 0 -355 0 0 860 0 860 355 0 355 0 0 -860z
m870 0 l0 -860 -360 0 -360 0 0 860 0 860 360 0 360 0 0 -860z m-14331 -2050
c119 -24 208 -57 304 -111 93 -52 126 -78 215 -163 l72 -69 0 -204 0 -203
-790 0 -790 0 0 209 0 209 73 67 c121 113 234 181 384 231 169 57 361 69 532
34z m2382 0 c203 -42 360 -124 511 -268 l78 -75 0 -203 0 -204 -790 0 -790 0
0 209 0 209 73 67 c118 110 224 175 376 229 162 58 366 72 542 36z m2439 -15
c164 -44 319 -130 441 -242 l59 -55 0 -219 0 -219 -775 0 -775 0 0 209 0 209
73 67 c155 144 334 235 531 270 124 22 326 13 446 -20z m4150 -15 c223 -28
449 -137 602 -293 l58 -59 0 -204 0 -204 -790 0 -790 0 0 204 0 204 77 72 c43
40 102 89 133 110 207 140 459 200 710 170z m2380 0 c225 -28 449 -137 603
-295 l57 -59 0 -203 0 -203 -790 0 -790 0 0 204 0 203 74 70 c233 222 531 321
846 283z m2380 0 c220 -28 424 -126 588 -283 l72 -70 0 -204 0 -203 -790 0
-790 0 0 204 0 203 74 70 c233 222 531 321 846 283z m-14010 -1730 l0 -860
-355 0 -355 0 0 860 0 860 355 0 355 0 0 -860z m870 0 l0 -860 -360 0 -360 0
0 860 0 860 360 0 360 0 0 -860z m1510 0 l0 -860 -355 0 -355 0 0 860 0 860
355 0 355 0 0 -860z m870 0 l0 -860 -360 0 -360 0 0 860 0 860 360 0 360 0 0
-860z m1510 0 l0 -860 -355 0 -355 0 0 860 0 860 355 0 355 0 0 -860z m840 0
l0 -860 -345 0 -345 0 0 860 0 860 345 0 345 0 0 -860z m3450 -40 l0 -860
-360 0 -360 0 0 860 0 860 360 0 360 0 0 -860z m860 0 l0 -860 -355 0 -355 0
0 860 0 860 355 0 355 0 0 -860z m1520 0 l0 -860 -360 0 -360 0 0 860 0 860
360 0 360 0 0 -860z m860 0 l0 -860 -355 0 -355 0 0 860 0 860 355 0 355 0 0
-860z m1510 0 l0 -860 -355 0 -355 0 0 860 0 860 355 0 355 0 0 -860z m870 0
l0 -860 -355 0 -355 0 0 860 0 860 355 0 355 0 0 -860z"/>
<path d="M5213 18106 l-2153 -1091 2140 -3 c1177 -1 3104 -1 4282 0 l2142 3
-2104 1079 c-1158 593 -2116 1084 -2130 1091 -23 11 -184 -68 -2177 -1079z
m3617 -3 l1457 -748 -1474 -3 c-811 -1 -2137 -1 -2946 0 l-1470 3 1474 747
c811 411 1480 748 1488 748 8 0 670 -336 1471 -747z"/>
</g>
</svg>
