<?xml version="1.0" standalone="no"?>
<!DOCTYPE svg PUBLIC "-//W3C//DTD SVG 20010904//EN"
 "http://www.w3.org/TR/2001/REC-SVG-20010904/DTD/svg10.dtd">
<svg version="1.0" xmlns="http://www.w3.org/2000/svg"
 viewBox="0 0 2600.000000 2600.000000"
 preserveAspectRatio="xMidYMid meet">
<metadata>
Created by potrace 1.13, written by Peter Selinger 2001-2015
</metadata>
<g transform="translate(0.000000,2600.000000) scale(0.100000,-0.100000)"
fill="#000000" stroke="none">
<path d="M13150 23084 c-14 -2 -59 -9 -100 -15 -346 -49 -703 -223 -966 -472
-286 -271 -467 -598 -546 -988 -31 -154 -33 -498 -4 -654 67 -363 226 -676
475 -937 352 -370 810 -567 1320 -568 1006 -1 1821 813 1821 1820 0 1009 -823
1827 -1830 1818 -80 0 -156 -2 -170 -4z"/>
<path d="M11995 18919 c-77 -4 -189 -15 -250 -23 -68 -10 -972 -61 -2345 -131
-3163 -163 -3316 -172 -3386 -189 -277 -68 -454 -295 -455 -582 0 -187 57
-331 181 -454 43 -44 100 -88 135 -107 66 -34 183 -73 222 -73 l25 0 -21 -22
c-12 -13 -444 -738 -959 -1613 l-938 -1590 -97 -3 -97 -3 0 -77 c0 -268 86
-608 221 -883 320 -645 915 -1076 1639 -1185 152 -22 443 -22 595 0 781 118
1422 624 1710 1350 83 208 140 481 147 696 l3 95 -93 5 -94 5 -937 1541 c-515
848 -956 1571 -979 1608 -23 36 -38 66 -34 66 24 2 4857 87 4858 86 2 -1 10
-122 239 -3821 l175 -2830 100 -3345 c124 -4154 114 -3856 139 -3953 29 -113
74 -191 156 -272 123 -123 266 -180 450 -179 231 0 425 95 544 265 58 81 87
152 108 259 9 44 100 1367 223 3224 115 1731 210 3150 212 3151 3 3 210 -2384
449 -5165 57 -659 106 -1181 114 -1215 37 -146 119 -263 240 -344 277 -185
670 -130 884 122 50 59 113 186 131 267 11 45 11 736 1 3670 l-12 3615 194
3292 c106 1811 196 3295 199 3298 7 7 4446 106 4583 103 l100 -3 -935 -1587
-935 -1587 -97 -1 -98 0 0 -59 c0 -338 132 -780 323 -1083 124 -196 315 -411
487 -548 319 -254 707 -415 1109 -461 136 -15 476 -7 596 15 701 129 1278 559
1580 1181 132 271 201 534 221 848 l7 107 -94 0 -94 0 -965 1586 c-531 873
-966 1590 -968 1594 -1 4 28 10 65 13 142 12 299 91 401 203 180 196 213 507
79 744 -40 71 -137 168 -207 207 -111 62 -168 74 -380 84 -107 5 -1385 23
-2840 40 -1455 16 -2688 34 -2740 39 -52 4 -167 11 -255 15 l-160 7 -355
-1028 -355 -1028 -3 557 -2 557 -330 0 -330 0 -1 -557 c0 -367 -4 -551 -10
-538 -5 11 -166 472 -357 1025 l-348 1005 -74 1 c-41 1 -138 -2 -215 -7z
m9279 -3017 c499 -822 906 -1496 903 -1498 -2 -2 -816 -3 -1810 -2 l-1806 3
785 1330 c432 732 832 1410 890 1509 87 146 108 176 118 165 7 -8 421 -686
920 -1507z m-14208 -264 l914 -1503 -905 -3 c-498 -1 -1312 -1 -1810 0 l-905
3 876 1485 c965 1636 904 1534 911 1527 3 -3 416 -682 919 -1509z"/>
<path d="M19530 14710 l0 -170 805 0 805 0 -2 168 -3 167 -802 3 -803 2 0
-170z"/>
<path d="M5324 14597 c-2 -7 -3 -85 -2 -172 l3 -160 805 0 805 0 0 170 0 170
-803 3 c-650 2 -804 0 -808 -11z"/>
<path d="M13000 18475 l0 -295 330 0 330 0 0 295 0 295 -330 0 -330 0 0 -295z"/>
</g>
</svg>
