<?xml version="1.0" standalone="no"?>
<!DOCTYPE svg PUBLIC "-//W3C//DTD SVG 20010904//EN"
 "http://www.w3.org/TR/2001/REC-SVG-20010904/DTD/svg10.dtd">
<svg version="1.0" xmlns="http://www.w3.org/2000/svg"
 viewBox="0 0 2600.000000 2600.000000"
 preserveAspectRatio="xMidYMid meet">
<metadata>
Created by potrace 1.13, written by Peter Selinger 2001-2015
</metadata>
<g transform="translate(0.000000,2600.000000) scale(0.100000,-0.100000)"
fill="#000000" stroke="none">
<path d="M8040 18551 c-20 -4 -42 -11 -50 -16 -8 -5 -38 -12 -68 -16 -29 -4
-69 -16 -90 -26 -52 -27 -99 -100 -107 -166 -3 -28 -5 -2554 -3 -5612 l3
-5560 21 -90 c125 -532 467 -864 1024 -994 218 -51 528 -68 605 -32 52 24 91
66 110 120 13 39 15 618 15 5536 0 4924 -2 5497 -15 5536 -20 56 -76 113 -123
127 -20 6 -95 15 -167 21 -450 36 -775 256 -950 646 l-45 100 3893 5 c3006 4
3898 8 3919 17 96 43 151 148 128 245 -15 59 -66 123 -120 147 -32 15 -391 16
-3990 17 -2175 1 -3971 -1 -3990 -5z"/>
<path d="M10082 17369 c-73 -14 -142 -78 -162 -147 -14 -53 -14 -11002 1
-11055 14 -51 71 -112 122 -132 38 -14 391 -15 3744 -13 l3701 3 43 30 c23 17
53 50 66 74 l23 44 -2 5533 -3 5532 -30 43 c-18 26 -50 53 -80 68 l-49 26
-3666 1 c-2016 1 -3684 -2 -3708 -7z m988 -3754 l0 -335 305 0 305 0 0 335 0
335 185 0 185 0 0 -865 0 -865 -185 0 -185 0 0 335 0 335 -305 0 -305 0 0
-335 0 -335 -185 0 -185 0 0 865 0 865 185 0 185 0 0 -335z m2490 140 l0 -195
-197 -2 -198 -3 -3 -667 -2 -668 -185 0 -185 0 0 670 0 670 -195 0 -195 0 0
195 0 195 580 0 580 0 0 -195z m807 -67 c50 -145 139 -409 198 -587 64 -193
111 -318 115 -310 4 8 94 272 200 587 l193 572 183 0 184 0 0 -865 0 -865
-185 0 -185 0 -2 301 -3 300 -101 -298 -102 -298 -187 0 -188 0 -103 305 -102
305 -1 -307 -1 -308 -185 0 -185 0 0 865 0 865 184 0 184 0 89 -262z m1853
-408 l0 -670 395 0 395 0 0 -195 0 -195 -580 0 -580 0 0 865 0 865 185 0 185
0 0 -670z m-1657 -2182 c137 -56 177 -76 175 -89 -8 -43 -1394 -3519 -1404
-3519 -9 0 -352 137 -362 145 -2 2 1114 2819 1395 3523 3 6 8 12 12 12 3 0 86
-33 184 -72z m-2198 -638 l140 -140 -488 -488 -487 -487 485 -485 485 -485
-142 -142 -143 -143 -627 627 -628 628 627 627 c346 346 630 628 633 628 3 0
68 -63 145 -140z m3765 -485 l625 -625 -630 -630 -630 -630 -142 142 -143 143
487 487 488 488 -485 485 -485 485 140 140 c77 77 142 140 145 140 3 0 286
-281 630 -625z"/>
</g>
</svg>
