<?xml version="1.0" standalone="no"?>
<!DOCTYPE svg PUBLIC "-//W3C//DTD SVG 20010904//EN"
 "http://www.w3.org/TR/2001/REC-SVG-20010904/DTD/svg10.dtd">
<svg version="1.0" xmlns="http://www.w3.org/2000/svg"
 viewBox="0 0 2600.000000 2600.000000"
 preserveAspectRatio="xMidYMid meet">
<metadata>
Created by potrace 1.13, written by Peter Selinger 2001-2015
</metadata>
<g transform="translate(0.000000,2600.000000) scale(0.100000,-0.100000)"
fill="#000000" stroke="none">
<path d="M12030 22373 c-1577 -31 -3149 -484 -4510 -1300 -2100 -1260 -3613
-3300 -4204 -5668 -132 -532 -218 -1098 -256 -1685 l-9 -145 92 -392 c50 -216
94 -393 97 -393 3 0 103 435 224 968 120 532 222 970 225 975 4 4 119 12 257
18 137 5 263 12 279 15 l30 4 39 178 c182 837 525 1691 984 2452 564 935 1353
1783 2254 2423 l107 76 62 -10 c82 -13 117 -29 158 -73 l35 -36 220 0 c225 -1
362 -11 380 -30 7 -7 11 -90 11 -233 -1 -188 -4 -240 -24 -341 -39 -204 -27
-292 47 -357 54 -47 97 -62 165 -56 101 9 147 40 350 238 l187 181 0 89 0 89
114 0 113 0 51 128 c60 149 95 284 122 477 37 256 61 328 121 364 30 18 113
34 239 46 l66 6 23 -55 c28 -67 86 -160 136 -214 34 -39 36 -43 26 -79 -33
-116 16 -224 121 -267 101 -43 252 15 303 115 22 41 81 72 124 64 112 -21 182
-138 197 -329 l7 -81 71 -75 c101 -106 163 -191 214 -288 50 -99 52 -131 7
-144 -16 -5 -181 -6 -365 -3 -275 5 -350 3 -420 -9 -214 -38 -363 -173 -415
-376 -9 -36 -20 -121 -24 -190 -6 -112 -10 -130 -36 -179 -58 -106 -178 -208
-482 -412 -109 -72 -256 -175 -328 -228 -80 -60 -157 -108 -200 -126 -237 -97
-401 -209 -476 -326 -17 -27 -46 -91 -63 -143 -38 -110 -69 -166 -128 -230
l-43 -46 -365 -98 -365 -97 -3 -592 -2 -593 -40 -20 c-54 -27 -166 -52 -201
-45 l-29 7 0 309 0 309 -27 29 c-113 120 -295 257 -427 322 -138 67 -243 92
-360 87 -118 -5 -200 -41 -290 -128 l-64 -61 -4 -112 c-5 -120 -19 -166 -61
-189 -16 -10 -94 -13 -295 -14 -150 -1 -294 -5 -319 -9 -189 -28 -335 -131
-414 -290 -55 -111 -66 -185 -74 -504 l-7 -274 128 7 c252 12 303 17 298 30
-2 6 0 124 4 261 7 218 11 255 28 290 29 60 49 63 359 64 299 1 363 10 473 61
154 72 247 197 287 385 10 50 15 59 31 56 41 -7 166 -77 236 -130 l73 -57 3
-326 2 -327 63 -54 c77 -68 125 -98 202 -126 98 -37 199 -31 432 28 199 50
235 65 351 149 l62 46 0 543 0 543 28 6 c15 4 140 38 277 75 l250 67 68 73
c122 132 231 316 267 450 6 23 23 52 36 64 32 30 150 91 295 154 92 39 125 59
170 103 64 63 151 124 352 244 380 230 556 393 663 619 52 109 71 184 84 329
13 143 21 157 90 175 46 11 104 12 340 3 379 -15 474 -4 610 69 77 41 143 112
183 197 30 64 32 73 31 182 -1 96 -5 128 -27 195 -41 125 -149 299 -265 428
-30 32 -39 54 -53 121 -34 170 -104 302 -214 405 -118 110 -255 167 -426 178
-88 5 -100 4 -132 -16 l-35 -21 -42 47 c-62 70 -70 84 -80 147 -12 75 -36 122
-90 177 -70 73 -119 84 -360 84 -174 0 -204 -3 -275 -23 -105 -30 -189 -71
-260 -126 -153 -119 -206 -236 -254 -566 -12 -80 -29 -180 -38 -222 -14 -68
-19 -78 -38 -78 -38 0 -119 -29 -167 -59 l-48 -31 0 26 c0 53 -33 181 -58 228
-96 176 -242 242 -562 254 l-175 7 120 69 c158 91 459 243 670 338 1469 663
3094 870 4685 597 888 -152 1753 -454 2537 -885 253 -139 673 -399 673 -416 0
-5 -15 -25 -34 -45 -89 -101 -153 -221 -186 -348 -19 -73 -20 -111 -20 -559
l0 -481 109 109 109 109 20 -69 c11 -38 27 -92 35 -120 l14 -52 -321 -4 c-302
-4 -324 -6 -377 -27 -151 -59 -227 -202 -200 -379 6 -42 14 -89 17 -103 5 -24
2 -27 -63 -48 -138 -45 -222 -128 -259 -255 -36 -127 8 -248 136 -379 l76 -77
138 59 c75 33 145 63 156 66 15 5 55 -50 226 -305 l208 -310 273 0 c212 0 273
3 273 13 -1 6 -13 100 -28 207 l-27 195 -73 3 -73 3 61 31 c34 17 64 37 67 44
5 13 -42 402 -52 432 -4 9 -18 4 -51 -18 -134 -93 -336 -160 -500 -167 -125
-6 -193 5 -272 43 -87 42 -63 48 218 53 138 2 250 5 250 8 0 3 -42 75 -94 161
-94 157 -166 292 -166 312 0 7 135 10 405 10 223 0 405 -3 405 -8 0 -31 -71
-244 -97 -294 -2 -3 395 165 884 374 853 365 888 379 903 361 8 -11 289 -362
625 -782 335 -419 611 -758 613 -753 1 4 -69 333 -157 729 l-159 721 -73 103
c-884 1253 -2053 2258 -3419 2940 -1052 525 -2166 835 -3350 934 -166 14 -765
38 -815 33 -11 -1 -76 -3 -145 -5z m5350 -3118 c0 -8 -7 -15 -16 -15 -14 0
-14 3 -4 15 7 8 14 15 16 15 2 0 4 -7 4 -15z m675 -387 c94 -95 214 -223 267
-283 113 -127 121 -112 -71 -151 -95 -19 -178 -28 -336 -35 -272 -11 -374 -36
-495 -119 l-56 -37 -73 263 c-40 144 -70 267 -67 272 9 15 89 31 196 41 52 5
115 17 140 27 68 26 134 79 169 132 27 42 36 64 57 130 6 20 75 -41 269 -240z"/>
<path d="M20800 18955 c-402 -172 -706 -309 -708 -316 -1 -8 143 -676 322
-1484 179 -808 324 -1471 323 -1472 -1 -1 -437 542 -969 1207 l-967 1208 -710
-303 c-391 -167 -717 -308 -724 -312 -10 -6 28 -311 195 -1533 114 -839 206
-1528 205 -1533 -1 -5 -1577 2333 -1688 2505 -3 5 -232 -88 -509 -206 -278
-119 -507 -211 -510 -206 -5 8 -1504 -361 -1517 -374 -4 -4 33 -679 81 -1501
48 -822 86 -1499 84 -1506 -2 -7 -332 566 -733 1272 -401 706 -744 1309 -762
1340 l-33 57 -762 -192 -763 -191 -36 -1530 c-20 -842 -38 -1538 -40 -1548 -2
-9 -289 602 -638 1358 -376 814 -640 1375 -648 1375 -12 0 -1482 -365 -1511
-375 -10 -4 -9 -11 3 -36 9 -17 15 -32 13 -34 -2 -1 -203 -12 -446 -23 -244
-11 -446 -22 -448 -25 -3 -2 -387 -2700 -426 -2987 -2 -14 -213 615 -487 1450
-265 811 -484 1475 -485 1476 -4 3 -1566 -72 -1570 -76 -2 -3 -158 -682 -346
-1510 -187 -827 -342 -1505 -343 -1507 -1 -1 -159 661 -351 1470 -192 810
-352 1475 -355 1479 -3 4 -339 -8 -746 -27 -407 -19 -759 -35 -782 -35 -32 0
-43 -4 -43 -15 0 -22 1431 -5289 1439 -5296 6 -6 1620 67 1626 73 1 2 174 757
384 1678 210 921 386 1686 390 1700 7 21 14 8 45 -90 210 -646 1050 -3187
1057 -3194 7 -8 1618 59 1626 68 1 1 172 988 380 2194 208 1206 380 2192 383
2192 3 0 439 -865 969 -1922 530 -1058 965 -1924 966 -1926 4 -5 1569 389
1577 396 4 4 26 781 49 1727 22 946 44 1728 48 1737 4 12 259 -428 838 -1445
458 -804 846 -1485 863 -1514 l30 -51 786 198 c432 109 787 200 790 202 2 3
-25 1017 -61 2254 -36 1237 -64 2277 -63 2310 l3 61 1355 -1885 c745 -1037
1362 -1894 1370 -1904 14 -18 46 -6 755 297 407 174 744 320 748 324 5 5 -95
784 -223 1731 -127 947 -230 1723 -228 1725 2 1 493 -609 1093 -1356 599 -748
1092 -1359 1095 -1359 3 0 340 144 750 319 699 300 745 321 742 343 -2 13
-232 1227 -511 2698 -386 2033 -511 2675 -522 2677 -8 0 -331 -135 -719 -302z"/>
<path d="M23165 16294 c-264 -345 -481 -632 -482 -638 -3 -11 1170 -913 1182
-909 13 4 966 1255 963 1264 -2 7 -1175 909 -1182 909 -1 0 -218 -282 -481
-626z"/>
<path d="M5743 15006 c-37 -39 -81 -95 -96 -124 l-28 -52 53 0 53 0 69 -207
c38 -115 72 -212 76 -216 16 -18 83 94 110 183 l16 55 163 3 163 3 -74 -74
c-119 -118 -175 -227 -185 -359 -5 -59 -2 -74 21 -122 38 -78 111 -141 194
-166 75 -23 204 -43 213 -32 3 4 36 226 74 495 l68 487 77 0 c84 0 140 8 140
20 0 18 -85 93 -125 111 -106 47 -190 55 -672 63 l-242 4 -68 -72z"/>
<path d="M6076 13768 c56 -180 276 -839 279 -837 2 2 28 184 59 404 31 220 59
412 62 428 l6 27 -207 0 -206 0 7 -22z"/>
<path d="M20377 13483 c21 -225 5 -761 -33 -1133 -108 -1059 -448 -2144 -967
-3083 l-65 -119 -31 59 c-49 91 -127 189 -191 238 -32 25 -111 73 -174 106
-113 59 -116 61 -116 95 0 66 115 150 305 220 55 21 104 41 108 45 10 8 -8
450 -23 564 -38 285 -110 502 -223 670 -22 33 -114 135 -204 226 l-163 165 0
95 c0 88 3 100 31 152 17 32 29 61 27 66 -2 4 -110 -37 -240 -93 l-238 -101 0
-150 0 -149 233 -236 233 -235 32 -85 c56 -148 86 -299 107 -536 l7 -71 -57
-32 c-264 -149 -384 -345 -355 -580 22 -168 121 -292 318 -395 135 -70 201
-126 231 -195 28 -65 48 -166 57 -278 l7 -91 -59 -84 c-538 -767 -1205 -1444
-1944 -1975 -1157 -830 -2492 -1339 -3905 -1487 -312 -33 -472 -41 -835 -41
-640 0 -1184 63 -1825 210 l-110 26 3 306 c2 169 4 309 6 311 9 8 185 -83 322
-166 83 -51 156 -92 163 -92 8 0 11 129 11 489 l0 489 48 6 c112 16 210 40
256 63 73 37 161 129 198 209 29 62 32 78 40 223 18 349 70 530 204 711 74
101 361 388 415 415 26 13 113 43 195 65 82 23 171 54 197 68 69 37 160 138
201 224 58 122 66 170 76 428 16 436 72 660 199 805 200 227 316 512 341 834
l8 116 -41 73 c-68 120 -363 399 -572 542 -99 67 -271 159 -374 200 l-51 20 0
-88 c0 -48 -3 -150 -6 -227 l-6 -140 84 -43 c112 -58 195 -121 363 -278 200
-187 181 -155 157 -271 -36 -182 -109 -333 -215 -451 -99 -109 -155 -210 -210
-377 -59 -178 -83 -338 -97 -643 -6 -120 -16 -244 -23 -277 -11 -54 -15 -62
-48 -77 -19 -9 -74 -26 -122 -37 -124 -29 -231 -73 -317 -130 -82 -54 -320
-283 -416 -401 -246 -301 -364 -634 -364 -1024 0 -47 -4 -87 -9 -91 -5 -3 -71
-14 -146 -24 -152 -21 -212 -44 -288 -111 -26 -23 -58 -66 -74 -98 -28 -56
-28 -59 -31 -280 l-4 -223 -61 8 c-152 19 -238 -2 -321 -78 -33 -30 -63 -69
-77 -101 -24 -52 -24 -58 -27 -411 -2 -289 -5 -358 -16 -354 -7 3 -60 20 -117
37 -130 40 -402 140 -579 213 -157 65 -382 165 -392 175 -24 24 -31 399 -32
1842 -1 1233 -3 1524 -14 1561 -27 91 -114 160 -205 161 -67 1 -143 -28 -173
-68 -15 -19 -32 -34 -39 -34 -23 0 -151 146 -204 231 -28 46 -80 140 -113 208
-34 68 -63 119 -65 115 -2 -5 -27 -151 -57 -324 l-54 -314 30 -44 c112 -162
310 -302 430 -302 16 0 30 -6 32 -12 3 -7 7 -642 10 -1410 l5 -1398 -57 32
c-978 542 -1875 1324 -2556 2229 -424 563 -786 1201 -1045 1844 -29 72 -56
133 -60 138 -4 4 -84 -329 -178 -740 l-170 -748 -56 -5 -57 -5 84 -147 c309
-541 653 -1021 1090 -1523 164 -188 573 -600 766 -771 1025 -909 2191 -1565
3469 -1950 1892 -569 3953 -514 5791 156 711 259 1324 569 1954 987 2116 1406
3560 3626 3980 6119 71 419 126 989 126 1307 0 91 -1 98 -18 92 -11 -3 -113
-46 -227 -95 -115 -50 -214 -90 -219 -89 -6 0 -139 162 -296 359 -157 197
-289 359 -293 359 -4 1 -4 -38 0 -86z"/>
<path d="M15464 13213 c6 -229 7 -239 28 -253 110 -76 238 -181 367 -301 320
-300 486 -389 753 -406 l96 -6 176 63 c97 34 176 66 176 71 0 10 -239 343
-249 347 -4 1 -45 -11 -90 -28 -82 -30 -83 -30 -150 -16 -130 27 -185 64 -424
285 -177 163 -256 228 -387 315 -91 61 -278 166 -295 166 -4 0 -5 -107 -1
-237z"/>
</g>
</svg>
