<?xml version="1.0" standalone="no"?>
<!DOCTYPE svg PUBLIC "-//W3C//DTD SVG 20010904//EN"
 "http://www.w3.org/TR/2001/REC-SVG-20010904/DTD/svg10.dtd">
<svg version="1.0" xmlns="http://www.w3.org/2000/svg"
 viewBox="0 0 2600.000000 2600.000000"
 preserveAspectRatio="xMidYMid meet">
<metadata>
Created by potrace 1.13, written by Peter Selinger 2001-2015
</metadata>
<g transform="translate(0.000000,2600.000000) scale(0.100000,-0.100000)"
fill="#000000" stroke="none">
<path d="M5202 23189 c-160 -31 -298 -170 -331 -332 -8 -37 -10 -2690 -9
-9152 l3 -9100 22 -58 c43 -115 130 -203 243 -250 l55 -22 4805 -3 c4451 -3
4810 -2 4868 14 160 42 273 168 303 337 30 163 -61 350 -211 431 -109 60 225
56 -4717 56 l-4533 0 0 8625 0 8625 4548 2 4547 3 67 32 c167 79 256 226 246
408 -10 189 -145 344 -336 384 -64 13 -9502 14 -9570 0z"/>
<path d="M17715 22744 c-475 -49 -910 -227 -1270 -519 -185 -150 -386 -378
-513 -581 -160 -257 -280 -584 -327 -889 -23 -145 -30 -416 -16 -565 64 -654
401 -1261 919 -1652 806 -608 1903 -635 2738 -67 473 322 818 818 953 1370 52
213 65 331 65 569 0 243 -14 360 -69 576 -233 910 -984 1591 -1916 1739 -100
16 -472 28 -564 19z"/>
<path d="M15843 18359 c-240 -37 -457 -193 -562 -405 -48 -97 -2462 -5863
-2489 -5944 -32 -99 -41 -264 -19 -367 33 -153 97 -271 207 -382 141 -142 278
-200 480 -202 125 -2 210 17 325 71 150 70 262 174 338 312 19 35 353 825 743
1756 l709 1693 5 -5613 c5 -5132 7 -5617 21 -5663 45 -139 86 -216 162 -303
91 -106 202 -180 342 -229 l80 -27 434 -4 c367 -3 446 -1 513 13 281 57 495
259 584 550 18 57 19 195 21 3143 l3 3082 185 0 185 0 2 -3087 3 -3088 23 -70
c73 -217 230 -398 417 -480 135 -60 182 -65 628 -65 442 0 490 4 618 56 204
83 372 271 441 494 l23 75 3 5620 2 5620 660 -1575 c815 -1944 784 -1872 827
-1938 171 -269 499 -398 815 -323 114 27 194 76 303 185 102 103 158 196 197
332 33 113 31 286 -4 399 -26 84 -2434 5839 -2494 5960 -94 189 -268 329 -480
386 -104 28 -269 30 -369 4 -107 -27 -240 -95 -335 -171 -276 -219 -618 -386
-942 -458 -339 -76 -724 -76 -1047 -1 -345 81 -668 238 -941 458 -186 150
-412 218 -617 186z"/>
<path d="M7263 17670 c-90 -32 -167 -102 -207 -189 -30 -66 -30 -206 1 -273
30 -66 105 -143 172 -175 l56 -28 3420 0 3420 0 55 27 c72 35 136 99 169 168
22 47 26 69 26 145 0 76 -4 98 -26 145 -33 69 -97 133 -169 168 l-55 27 -3405
2 c-3314 2 -3406 2 -3457 -17z"/>
<path d="M7233 15264 c-63 -23 -128 -86 -164 -160 -76 -154 -33 -361 94 -454
88 -65 -145 -60 3062 -58 l2920 3 46 21 c63 29 120 88 155 160 26 53 29 69 29
159 0 93 -2 105 -33 167 -20 41 -50 82 -78 107 -89 78 202 71 -3063 70 -2556
0 -2931 -2 -2968 -15z"/>
<path d="M7215 12846 c-197 -93 -248 -392 -95 -559 28 -30 71 -65 97 -78 l48
-24 2545 0 2545 0 52 24 c248 112 254 514 10 635 l-51 26 -2550 0 -2551 0 -50
-24z"/>
<path d="M7310 10459 c-108 -21 -201 -94 -251 -197 -19 -38 -23 -64 -24 -137
0 -82 3 -96 33 -157 55 -112 141 -170 278 -188 54 -7 1143 -10 3419 -8 l3340
3 58 23 c71 29 153 106 187 177 21 42 25 65 25 145 0 84 -3 102 -28 152 -35
71 -109 139 -185 170 l-57 23 -3375 1 c-1903 1 -3394 -2 -3420 -7z"/>
</g>
</svg>
