<?xml version="1.0" standalone="no"?>
<!DOCTYPE svg PUBLIC "-//W3C//DTD SVG 20010904//EN"
 "http://www.w3.org/TR/2001/REC-SVG-20010904/DTD/svg10.dtd">
<svg version="1.0" xmlns="http://www.w3.org/2000/svg"
 viewBox="0 0 2600.000000 2600.000000"
 preserveAspectRatio="xMidYMid meet">
<metadata>
Created by potrace 1.13, written by Peter Selinger 2001-2015
</metadata>
<g transform="translate(0.000000,2600.000000) scale(0.100000,-0.100000)"
fill="#000000" stroke="none">
<path d="M8217 22140 c-153 -26 -275 -88 -382 -195 -81 -82 -134 -168 -173
-280 l-27 -80 0 -7870 c0 -6563 2 -7879 13 -7925 8 -30 34 -97 59 -149 37 -77
59 -108 126 -176 92 -92 171 -141 287 -177 l75 -23 4945 0 4945 0 75 23 c195
61 360 210 434 392 61 150 57 -526 54 8060 l-3 7845 -26 77 c-41 119 -94 205
-178 288 -82 81 -190 143 -306 177 -57 17 -323 18 -4965 19 -2698 1 -4927 -2
-4953 -6z m6558 -1234 c91 -43 145 -126 145 -226 0 -100 -54 -183 -145 -226
l-50 -24 -1585 0 -1585 0 -50 24 c-91 43 -145 126 -145 226 0 100 54 183 145
226 l50 24 1585 0 1585 0 50 -24z m3245 -7201 l0 -5575 -4810 0 -4810 0 0
5575 0 5575 4810 0 4810 0 0 -5575z m-4742 -6231 c44 -9 117 -35 172 -61 79
-38 108 -59 181 -132 73 -73 94 -102 132 -181 78 -161 96 -328 52 -490 -60
-225 -242 -412 -473 -488 -98 -31 -270 -36 -372 -9 -234 61 -421 240 -498 475
-20 63 -25 98 -26 192 -1 139 12 195 71 320 38 79 59 107 132 181 73 73 102
94 181 132 153 74 292 93 448 61z"/>
</g>
</svg>
