<?xml version="1.0" standalone="no"?>
<!DOCTYPE svg PUBLIC "-//W3C//DTD SVG 20010904//EN"
 "http://www.w3.org/TR/2001/REC-SVG-20010904/DTD/svg10.dtd">
<svg version="1.0" xmlns="http://www.w3.org/2000/svg"
 viewBox="0 0 2600.000000 2600.000000"
 preserveAspectRatio="xMidYMid meet">
<metadata>
Created by potrace 1.13, written by Peter Selinger 2001-2015
</metadata>
<g transform="translate(0.000000,2600.000000) scale(0.100000,-0.100000)"
fill="#000000" stroke="none">
<path d="M13025 19574 c-11 -2 -45 -9 -75 -15 -30 -6 -93 -29 -139 -51 -102
-49 -219 -159 -268 -253 -29 -56 -4049 -10475 -4115 -10665 -94 -270 3 -562
239 -724 99 -68 194 -98 323 -104 115 -5 192 9 286 52 28 13 898 542 1932
1175 l1881 1152 1873 -1147 c1030 -631 1893 -1157 1918 -1170 85 -42 144 -57
250 -62 127 -5 198 10 316 68 254 124 389 418 322 700 -18 74 -4106 10680
-4140 10740 -42 74 -159 188 -233 227 -33 17 -91 40 -128 52 -66 20 -202 34
-242 25z"/>
</g>
</svg>
