<?xml version="1.0" standalone="no"?>
<!DOCTYPE svg PUBLIC "-//W3C//DTD SVG 20010904//EN"
 "http://www.w3.org/TR/2001/REC-SVG-20010904/DTD/svg10.dtd">
<svg version="1.0" xmlns="http://www.w3.org/2000/svg"
 viewBox="0 0 2604.000000 2604.000000"
 preserveAspectRatio="xMidYMid meet">
<metadata>
Created by potrace 1.13, written by Peter Selinger 2001-2015
</metadata>
<g transform="translate(0.000000,2604.000000) scale(0.100000,-0.100000)"
fill="#000000" stroke="none">
<path d="M15941 24779 c-480 -54 -927 -260 -1289 -596 -53 -49 -113 -99 -132
-110 -49 -30 -95 -81 -192 -213 -47 -63 -140 -173 -207 -244 -67 -71 -142
-155 -167 -187 -51 -66 -51 -66 62 -76 41 -3 74 -9 74 -13 0 -3 -11 -38 -24
-76 -13 -38 -31 -105 -41 -149 -16 -68 -25 -87 -61 -125 -53 -57 -74 -99 -74
-149 0 -38 1 -39 39 -46 l38 -6 -4 -97 c-8 -206 -10 -216 -49 -237 -89 -48
-165 -167 -205 -320 -20 -78 -23 -115 -24 -280 0 -151 4 -202 17 -250 10 -33
20 -69 23 -80 5 -17 -4 -24 -57 -44 -133 -51 -825 -405 -1073 -549 -392 -227
-701 -480 -915 -750 -38 -47 -57 -60 -184 -120 -254 -123 -415 -233 -595 -407
-259 -251 -424 -518 -741 -1200 -126 -272 -214 -447 -320 -640 -113 -206 -191
-364 -412 -830 -429 -909 -690 -1333 -1064 -1732 -149 -159 -183 -201 -227
-283 -92 -169 -108 -379 -43 -574 l24 -72 -18 -67 c-45 -161 -153 -643 -255
-1139 -26 -123 -44 -313 -38 -388 9 -109 28 -220 74 -435 l50 -230 -2 -450
c-3 -520 -13 -434 120 -1022 50 -220 91 -407 91 -415 0 -7 -28 -44 -61 -82
-113 -128 -149 -215 -130 -307 16 -72 55 -150 109 -216 l47 -58 0 -120 c0
-116 1 -123 33 -187 21 -42 51 -83 82 -111 l49 -44 -10 -154 c-18 -248 -7
-466 57 -1209 53 -623 80 -864 130 -1173 14 -87 23 -161 21 -164 -3 -2 -97 0
-209 6 -265 15 -673 15 -766 2 -213 -32 -386 -81 -762 -216 -306 -109 -370
-130 -525 -169 -175 -43 -380 -73 -530 -77 l-79 -2 -31 49 -30 49 -3 -31 -3
-31 -82 18 c-45 10 -359 79 -697 153 -1192 261 -1081 239 -1220 240 -117 1
-128 -1 -182 -27 -123 -61 -206 -191 -301 -478 -162 -485 -322 -819 -604
-1259 -183 -284 -239 -438 -250 -685 -9 -197 25 -428 202 -1370 35 -187 73
-394 85 -460 47 -269 113 -382 265 -457 67 -34 118 -50 325 -102 96 -25 238
-62 315 -82 131 -35 150 -37 290 -38 145 -1 152 0 207 27 95 46 155 128 183
249 8 35 28 167 44 293 17 127 40 266 51 310 30 115 98 247 185 361 105 136
162 222 228 339 54 96 78 148 237 500 140 312 205 407 470 690 41 44 97 105
125 135 l49 54 141 14 c180 18 543 20 655 4 201 -30 369 -90 708 -251 345
-165 438 -200 685 -261 352 -88 710 -132 1062 -131 320 0 520 19 1205 117 374
53 433 65 568 110 136 45 224 97 303 181 172 183 242 442 285 1058 17 244 19
318 16 729 -3 409 21 684 89 996 87 399 109 530 163 940 62 468 81 631 92 762
3 47 9 90 13 96 3 5 44 28 91 50 115 55 332 183 401 236 31 24 99 62 152 86
122 53 178 90 209 138 46 69 51 97 56 314 l4 207 52 -20 c28 -11 115 -47 194
-80 195 -82 262 -97 476 -110 140 -8 198 -16 265 -36 63 -18 134 -29 261 -38
169 -13 336 -36 384 -55 21 -8 26 -3 59 63 28 54 48 121 82 272 25 110 45 204
45 208 0 16 48 -7 229 -111 369 -210 679 -332 1146 -450 247 -62 378 -90 910
-192 231 -45 432 -83 447 -86 15 -3 38 -21 54 -42 15 -20 116 -147 223 -282
l196 -245 -3 -230 c-1 -126 -12 -376 -23 -555 -26 -425 -36 -958 -20 -1154 37
-453 143 -796 339 -1096 38 -58 155 -226 260 -373 177 -247 200 -284 296 -480
153 -309 223 -490 252 -644 18 -101 75 -283 111 -362 l26 -53 -57 -282 c-85
-425 -116 -659 -116 -881 1 -361 94 -728 240 -946 55 -81 170 -194 244 -238
77 -46 189 -85 311 -107 147 -28 533 -26 831 4 l221 22 144 -24 c173 -29 363
-49 729 -76 151 -11 349 -27 440 -36 294 -29 552 -13 855 52 242 53 771 210
858 256 74 40 129 100 157 174 32 81 32 252 1 369 -56 212 -211 431 -410 580
-133 101 -196 126 -516 210 -349 92 -436 119 -770 245 -249 94 -428 154 -544
182 -50 13 -55 16 -66 53 -26 89 -108 207 -236 340 l-77 80 -82 240 c-45 132
-119 353 -164 490 -46 138 -90 264 -98 280 -36 68 -94 95 -204 95 l-60 0 -17
53 c-171 521 -313 1000 -512 1722 -53 193 -116 411 -140 485 -79 241 -96 316
-102 441 -7 150 4 208 82 449 35 107 69 224 76 260 16 83 17 374 1 466 -6 39
-21 141 -32 226 -31 241 -94 519 -205 903 -24 83 -51 182 -60 220 -19 78 -143
353 -218 485 -78 137 -200 284 -292 350 -11 8 -51 51 -90 95 -38 44 -114 129
-169 188 -54 59 -96 110 -93 113 3 3 47 25 99 48 456 207 825 547 1007 930
170 355 206 770 94 1079 -59 163 -214 371 -381 510 -427 356 -1037 514 -1585
411 -193 -37 -420 -130 -571 -234 -292 -202 -706 -684 -875 -1018 -17 -34 -33
-62 -36 -62 -5 0 -430 196 -910 419 -169 78 -279 135 -277 142 2 7 10 38 18
68 9 31 18 97 21 147 5 74 2 97 -12 128 -34 72 -86 91 -305 111 -179 16 -177
16 -341 85 -281 118 -441 216 -542 332 -28 33 -117 118 -197 188 -177 156
-217 197 -204 209 5 5 65 51 134 102 69 51 166 134 216 184 107 105 144 174
215 395 72 222 186 431 400 728 58 81 199 278 313 437 115 160 210 292 212
294 10 10 257 -44 372 -81 129 -41 211 -55 257 -44 15 4 47 27 73 52 l45 45
226 -3 c215 -3 228 -2 274 19 26 12 48 28 48 35 1 7 1 83 -1 168 -1 93 2 173
9 200 7 25 46 127 87 227 l76 181 107 -38 c156 -56 691 -253 798 -295 51 -19
155 -49 230 -66 303 -68 620 -170 1003 -324 140 -56 271 -108 290 -114 25 -8
54 -34 98 -86 73 -87 154 -150 226 -175 28 -10 101 -25 161 -34 61 -9 169 -32
240 -52 101 -27 162 -37 270 -44 77 -5 165 -14 195 -20 30 -7 110 -11 178 -11
111 1 127 -1 170 -23 111 -57 175 -180 253 -490 33 -133 59 -199 90 -233 50
-53 126 -54 178 -3 49 49 64 115 71 295 l5 160 64 -100 c89 -139 122 -172 187
-185 90 -19 231 18 283 73 43 47 30 90 -127 418 -78 162 -134 283 -124 269 61
-88 115 -149 156 -177 63 -43 103 -43 151 -2 33 29 35 35 35 90 0 113 -49 203
-219 402 -55 64 -136 170 -180 235 -130 191 -238 277 -363 288 -29 2 -206 9
-393 14 -373 12 -428 16 -715 60 -107 16 -249 32 -315 36 -144 8 -169 20 -339
157 -112 90 -367 263 -642 435 -242 151 -539 366 -604 437 -14 15 -41 37 -60
50 -53 34 -366 157 -535 211 -82 26 -152 48 -154 50 -1 1 26 51 62 111 36 59
75 129 88 155 l22 46 -45 51 c-25 27 -73 91 -107 141 -80 117 -169 227 -221
273 -22 21 -40 40 -40 44 0 5 22 24 48 43 172 129 291 286 371 493 18 48 54
107 108 177 317 416 532 866 618 1294 38 189 49 343 41 587 l-6 217 30 5 c40
8 67 38 80 88 21 77 -7 193 -109 456 -81 209 -95 269 -89 396 3 79 8 100 31
139 49 84 130 134 267 164 l74 17 -36 31 c-20 18 -125 81 -234 141 -109 61
-207 117 -218 126 -19 16 -17 17 45 27 120 21 273 34 341 30 38 -3 68 -3 67 1
0 6 -27 29 -240 217 -44 39 -140 107 -212 150 -73 43 -193 118 -267 167 -156
103 -330 190 -413 208 -56 12 -58 12 -85 -14 l-27 -26 -67 19 c-108 30 -249
42 -453 40 -104 -2 -260 0 -345 3 -85 3 -193 2 -239 -4z"/>
</g>
</svg>
