<?xml version="1.0" standalone="no"?>
<!DOCTYPE svg PUBLIC "-//W3C//DTD SVG 20010904//EN"
 "http://www.w3.org/TR/2001/REC-SVG-20010904/DTD/svg10.dtd">
<svg version="1.0" xmlns="http://www.w3.org/2000/svg"
 viewBox="0 0 2600.000000 2600.000000"
 preserveAspectRatio="xMidYMid meet">
<metadata>
Created by potrace 1.13, written by Peter Selinger 2001-2015
</metadata>
<g transform="translate(0.000000,2600.000000) scale(0.100000,-0.100000)"
fill="#000000" stroke="none">
<path d="M10645 24009 c-740 -71 -1377 -592 -1589 -1299 -60 -201 -70 -278
-71 -525 0 -184 4 -250 19 -330 109 -587 476 -1074 1001 -1330 275 -134 506
-186 824 -185 281 0 522 54 771 171 818 387 1233 1294 989 2162 -164 587 -615
1059 -1189 1247 -252 83 -504 113 -755 89z"/>
<path d="M18670 20455 c-499 -84 -949 -409 -1184 -855 l-45 -85 946 -840 c519
-462 948 -841 952 -843 4 -1 43 21 87 49 416 272 689 721 734 1208 25 270 -39
562 -169 779 -191 317 -492 523 -860 586 -113 19 -351 20 -461 1z"/>
<path d="M8730 20046 c-133 -29 -287 -99 -329 -150 -8 -9 -37 -28 -65 -41 -50
-23 -3235 -2552 -3323 -2637 -89 -87 -151 -259 -139 -384 15 -154 94 -287 218
-372 95 -65 1261 -713 1320 -734 86 -30 227 -30 312 1 354 128 452 577 181
829 -46 43 -132 97 -354 221 -161 90 -289 167 -284 172 4 4 427 341 938 748
692 551 931 736 933 723 5 -30 -702 -5738 -794 -6412 -73 -535 -395 -2868
-423 -3060 -8 -56 -59 -166 -381 -820 -474 -962 -865 -1757 -1136 -2314 -200
-408 -215 -444 -230 -529 -35 -204 23 -384 172 -534 122 -122 300 -193 484
-193 208 0 388 85 506 240 23 30 528 906 1123 1947 l1080 1892 407 1813 c223
997 407 1814 409 1816 1 2 2060 -3207 2481 -3868 21 -34 27 -101 145 -1765
l122 -1730 44 -72 c57 -94 165 -194 257 -238 213 -101 474 -83 670 45 226 147
327 392 271 655 -13 60 -15 324 -15 1928 l0 1858 -81 172 c-129 274 -495 1007
-655 1312 -396 757 -776 1417 -1070 1855 -64 96 -116 182 -116 191 0 14 949
5020 956 5043 1 5 274 -388 607 -875 359 -525 624 -904 654 -934 62 -61 150
-109 236 -130 80 -19 137 -19 216 0 33 8 586 246 1227 530 642 283 1170 515
1174 515 4 0 47 -40 96 -89 l89 -90 248 242 247 242 149 64 c193 84 245 113
307 175 81 82 145 227 146 331 0 22 14 43 57 87 32 32 62 58 68 58 6 0 40 -16
76 -35 293 -155 708 -178 1061 -58 61 21 110 41 109 46 0 4 -398 360 -883 792
l-883 784 -16 -52 c-32 -101 -51 -249 -52 -392 0 -210 36 -376 121 -558 l46
-98 -40 -39 c-38 -39 -40 -39 -84 -29 -55 13 -169 5 -230 -16 -25 -8 -700
-305 -1500 -659 -1335 -590 -1456 -642 -1471 -627 -9 9 -351 507 -761 1106
l-745 1090 -5 61 c-8 81 -46 154 -122 230 -150 149 -278 204 -671 284 -185 37
-2389 393 -2610 421 -215 27 -411 33 -495 15z"/>
<path d="M18560 15877 c-101 -30 -162 -68 -240 -147 -217 -219 -215 -566 5
-785 112 -113 237 -165 395 -165 158 0 284 52 396 164 112 112 164 238 164
396 0 99 -17 168 -61 258 -38 78 -141 185 -219 229 -129 73 -298 92 -440 50z"/>
<path d="M12590 14383 c-66 -24 -151 -113 -173 -182 -37 -115 -13 -216 73
-302 37 -38 71 -61 104 -72 46 -16 355 -17 4377 -17 l4327 0 63 33 c217 112
217 412 0 524 l-63 33 -4331 -1 c-3928 -1 -4336 -2 -4377 -16z"/>
</g>
</svg>
